<mxfile host="app.diagrams.net" modified="2024-07-01T12:43:30.615Z" agent="Mozilla/5.0 (Windows NT 10.0; Win64; x64; rv:127.0) Gecko/20100101 Firefox/127.0" etag="LswnfVzJxm6GHELUo8h0" version="24.6.4" type="device">
  <diagram name="Page-1" id="VH8i9e0uUJv6PNGk_LA1">
    <mxGraphModel dx="873" dy="482" grid="1" gridSize="10" guides="1" tooltips="1" connect="1" arrows="1" fold="1" page="1" pageScale="1" pageWidth="827" pageHeight="1169" math="0" shadow="0">
      <root>
        <mxCell id="0" />
        <mxCell id="1" parent="0" />
        <mxCell id="QbIVaBJsHX0RIEPLZKNT-1" value="" style="strokeWidth=2;html=1;shape=mxgraph.flowchart.database;whiteSpace=wrap;" parent="1" vertex="1">
          <mxGeometry x="370" y="60" width="60" height="60" as="geometry" />
        </mxCell>
        <mxCell id="QbIVaBJsHX0RIEPLZKNT-2" value="primaerer MongoDB Server" style="text;html=1;align=center;verticalAlign=middle;resizable=0;points=[];autosize=1;strokeColor=none;fillColor=none;" parent="1" vertex="1">
          <mxGeometry x="315" y="130" width="170" height="30" as="geometry" />
        </mxCell>
        <mxCell id="QbIVaBJsHX0RIEPLZKNT-3" value="(write)" style="text;html=1;align=center;verticalAlign=middle;resizable=0;points=[];autosize=1;strokeColor=none;fillColor=none;" parent="1" vertex="1">
          <mxGeometry x="430" y="90" width="60" height="30" as="geometry" />
        </mxCell>
        <mxCell id="QbIVaBJsHX0RIEPLZKNT-4" value="" style="strokeWidth=2;html=1;shape=mxgraph.flowchart.database;whiteSpace=wrap;" parent="1" vertex="1">
          <mxGeometry x="250" y="190" width="60" height="60" as="geometry" />
        </mxCell>
        <mxCell id="QbIVaBJsHX0RIEPLZKNT-5" value="sekundaerer MongoDB Server" style="text;html=1;align=center;verticalAlign=middle;resizable=0;points=[];autosize=1;strokeColor=none;fillColor=none;" parent="1" vertex="1">
          <mxGeometry x="190" y="268" width="180" height="30" as="geometry" />
        </mxCell>
        <mxCell id="QbIVaBJsHX0RIEPLZKNT-6" value="" style="strokeWidth=2;html=1;shape=mxgraph.flowchart.database;whiteSpace=wrap;" parent="1" vertex="1">
          <mxGeometry x="500" y="190" width="60" height="60" as="geometry" />
        </mxCell>
        <mxCell id="QbIVaBJsHX0RIEPLZKNT-7" value="sekundaerer MongoDB Server" style="text;html=1;align=center;verticalAlign=middle;resizable=0;points=[];autosize=1;strokeColor=none;fillColor=none;" parent="1" vertex="1">
          <mxGeometry x="440" y="268" width="180" height="30" as="geometry" />
        </mxCell>
        <mxCell id="QbIVaBJsHX0RIEPLZKNT-8" value="" style="endArrow=classic;html=1;rounded=0;exitX=0;exitY=0.5;exitDx=0;exitDy=0;exitPerimeter=0;entryX=0.5;entryY=0;entryDx=0;entryDy=0;entryPerimeter=0;" parent="1" source="QbIVaBJsHX0RIEPLZKNT-1" target="QbIVaBJsHX0RIEPLZKNT-4" edge="1">
          <mxGeometry width="50" height="50" relative="1" as="geometry">
            <mxPoint x="390" y="300" as="sourcePoint" />
            <mxPoint x="440" y="250" as="targetPoint" />
            <Array as="points">
              <mxPoint x="300" y="120" />
            </Array>
          </mxGeometry>
        </mxCell>
        <mxCell id="QbIVaBJsHX0RIEPLZKNT-9" value="" style="endArrow=classic;html=1;rounded=0;exitX=1;exitY=0.4;exitDx=0;exitDy=0;exitPerimeter=0;entryX=0.5;entryY=0;entryDx=0;entryDy=0;entryPerimeter=0;" parent="1" source="QbIVaBJsHX0RIEPLZKNT-1" target="QbIVaBJsHX0RIEPLZKNT-6" edge="1">
          <mxGeometry width="50" height="50" relative="1" as="geometry">
            <mxPoint x="710" y="50" as="sourcePoint" />
            <mxPoint x="620" y="150" as="targetPoint" />
            <Array as="points">
              <mxPoint x="510" y="120" />
            </Array>
          </mxGeometry>
        </mxCell>
        <mxCell id="QbIVaBJsHX0RIEPLZKNT-10" value="(read)" style="text;html=1;align=center;verticalAlign=middle;resizable=0;points=[];autosize=1;strokeColor=none;fillColor=none;" parent="1" vertex="1">
          <mxGeometry x="570" y="218" width="50" height="30" as="geometry" />
        </mxCell>
        <mxCell id="QbIVaBJsHX0RIEPLZKNT-11" value="(read)" style="text;html=1;align=center;verticalAlign=middle;resizable=0;points=[];autosize=1;strokeColor=none;fillColor=none;" parent="1" vertex="1">
          <mxGeometry x="320" y="220" width="50" height="30" as="geometry" />
        </mxCell>
        <mxCell id="H25z-8JFa3tywoeOWDJ_-1" value="" style="verticalLabelPosition=bottom;verticalAlign=top;html=1;shape=mxgraph.flowchart.on-page_reference;" vertex="1" parent="1">
          <mxGeometry x="240" y="640" width="60" height="60" as="geometry" />
        </mxCell>
        <mxCell id="H25z-8JFa3tywoeOWDJ_-2" value="Ship" style="text;html=1;align=center;verticalAlign=middle;resizable=0;points=[];autosize=1;strokeColor=none;fillColor=none;" vertex="1" parent="1">
          <mxGeometry x="245" y="655" width="50" height="30" as="geometry" />
        </mxCell>
        <mxCell id="H25z-8JFa3tywoeOWDJ_-3" value="" style="verticalLabelPosition=bottom;verticalAlign=top;html=1;shape=mxgraph.flowchart.on-page_reference;" vertex="1" parent="1">
          <mxGeometry x="510" y="640" width="60" height="60" as="geometry" />
        </mxCell>
        <mxCell id="H25z-8JFa3tywoeOWDJ_-4" value="" style="verticalLabelPosition=bottom;verticalAlign=top;html=1;shape=mxgraph.flowchart.on-page_reference;" vertex="1" parent="1">
          <mxGeometry x="510" y="860" width="60" height="60" as="geometry" />
        </mxCell>
        <mxCell id="H25z-8JFa3tywoeOWDJ_-5" value="" style="verticalLabelPosition=bottom;verticalAlign=top;html=1;shape=mxgraph.flowchart.on-page_reference;" vertex="1" parent="1">
          <mxGeometry x="240" y="860" width="60" height="60" as="geometry" />
        </mxCell>
        <mxCell id="H25z-8JFa3tywoeOWDJ_-6" value="Mission" style="text;html=1;align=center;verticalAlign=middle;resizable=0;points=[];autosize=1;strokeColor=none;fillColor=none;" vertex="1" parent="1">
          <mxGeometry x="510" y="655" width="60" height="30" as="geometry" />
        </mxCell>
        <mxCell id="H25z-8JFa3tywoeOWDJ_-7" value="Sailor" style="text;html=1;align=center;verticalAlign=middle;resizable=0;points=[];autosize=1;strokeColor=none;fillColor=none;" vertex="1" parent="1">
          <mxGeometry x="245" y="875" width="50" height="30" as="geometry" />
        </mxCell>
        <mxCell id="H25z-8JFa3tywoeOWDJ_-8" value="&lt;div&gt;Dockyard&lt;/div&gt;" style="text;html=1;align=center;verticalAlign=middle;resizable=0;points=[];autosize=1;strokeColor=none;fillColor=none;" vertex="1" parent="1">
          <mxGeometry x="505" y="875" width="70" height="30" as="geometry" />
        </mxCell>
        <mxCell id="H25z-8JFa3tywoeOWDJ_-9" value="" style="endArrow=classic;html=1;rounded=0;exitX=0;exitY=0.5;exitDx=0;exitDy=0;exitPerimeter=0;entryX=1;entryY=0.5;entryDx=0;entryDy=0;entryPerimeter=0;" edge="1" parent="1" source="H25z-8JFa3tywoeOWDJ_-3" target="H25z-8JFa3tywoeOWDJ_-1">
          <mxGeometry width="50" height="50" relative="1" as="geometry">
            <mxPoint x="440" y="805" as="sourcePoint" />
            <mxPoint x="360" y="725" as="targetPoint" />
          </mxGeometry>
        </mxCell>
        <mxCell id="H25z-8JFa3tywoeOWDJ_-10" value="includes" style="text;html=1;align=center;verticalAlign=middle;resizable=0;points=[];autosize=1;strokeColor=none;fillColor=none;" vertex="1" parent="1">
          <mxGeometry x="365" y="635" width="70" height="30" as="geometry" />
        </mxCell>
        <mxCell id="H25z-8JFa3tywoeOWDJ_-11" value="" style="endArrow=classic;html=1;rounded=0;exitX=0.855;exitY=0.855;exitDx=0;exitDy=0;exitPerimeter=0;entryX=0.145;entryY=0.145;entryDx=0;entryDy=0;entryPerimeter=0;" edge="1" parent="1" source="H25z-8JFa3tywoeOWDJ_-1" target="H25z-8JFa3tywoeOWDJ_-4">
          <mxGeometry width="50" height="50" relative="1" as="geometry">
            <mxPoint x="370" y="855" as="sourcePoint" />
            <mxPoint x="420" y="805" as="targetPoint" />
          </mxGeometry>
        </mxCell>
        <mxCell id="H25z-8JFa3tywoeOWDJ_-12" value="docks at" style="text;html=1;align=center;verticalAlign=middle;resizable=0;points=[];autosize=1;strokeColor=none;fillColor=none;rotation=40;" vertex="1" parent="1">
          <mxGeometry x="380" y="755" width="70" height="30" as="geometry" />
        </mxCell>
        <mxCell id="H25z-8JFa3tywoeOWDJ_-13" value="" style="endArrow=classic;html=1;rounded=0;exitX=0.5;exitY=0;exitDx=0;exitDy=0;exitPerimeter=0;entryX=0.5;entryY=1;entryDx=0;entryDy=0;entryPerimeter=0;" edge="1" parent="1" source="H25z-8JFa3tywoeOWDJ_-5" target="H25z-8JFa3tywoeOWDJ_-1">
          <mxGeometry width="50" height="50" relative="1" as="geometry">
            <mxPoint x="370" y="855" as="sourcePoint" />
            <mxPoint x="420" y="805" as="targetPoint" />
          </mxGeometry>
        </mxCell>
        <mxCell id="H25z-8JFa3tywoeOWDJ_-14" value="is assigned to " style="text;html=1;align=center;verticalAlign=middle;resizable=0;points=[];autosize=1;strokeColor=none;fillColor=none;rotation=90;" vertex="1" parent="1">
          <mxGeometry x="240" y="765" width="100" height="30" as="geometry" />
        </mxCell>
        <mxCell id="H25z-8JFa3tywoeOWDJ_-15" value="&lt;div&gt;shipname: string&lt;/div&gt;&lt;div&gt;type: string&lt;br&gt;&lt;/div&gt;" style="text;html=1;align=center;verticalAlign=middle;resizable=0;points=[];autosize=1;strokeColor=none;fillColor=none;" vertex="1" parent="1">
          <mxGeometry x="130" y="600" width="110" height="40" as="geometry" />
        </mxCell>
        <mxCell id="H25z-8JFa3tywoeOWDJ_-16" value="codename: string" style="text;html=1;align=center;verticalAlign=middle;resizable=0;points=[];autosize=1;strokeColor=none;fillColor=none;" vertex="1" parent="1">
          <mxGeometry x="570" y="610" width="110" height="30" as="geometry" />
        </mxCell>
        <mxCell id="H25z-8JFa3tywoeOWDJ_-17" value="&lt;div&gt;dockname: string&lt;/div&gt;&lt;div&gt;location: string&lt;br&gt;&lt;/div&gt;" style="text;html=1;align=center;verticalAlign=middle;resizable=0;points=[];autosize=1;strokeColor=none;fillColor=none;" vertex="1" parent="1">
          <mxGeometry x="570" y="920" width="110" height="40" as="geometry" />
        </mxCell>
        <mxCell id="H25z-8JFa3tywoeOWDJ_-18" value="&lt;div&gt;firstname: string&lt;/div&gt;&lt;div&gt;lastname: string&lt;/div&gt;&lt;div&gt;rank: string&lt;br&gt;&lt;/div&gt;" style="text;html=1;align=center;verticalAlign=middle;resizable=0;points=[];autosize=1;strokeColor=none;fillColor=none;" vertex="1" parent="1">
          <mxGeometry x="130" y="920" width="110" height="60" as="geometry" />
        </mxCell>
      </root>
    </mxGraphModel>
  </diagram>
</mxfile>
